<?xml version="1.0" encoding="UTF-8"?>
<!DOCTYPE svg PUBLIC "-//W3C//DTD SVG 1.1//EN" "http://www.w3.org/Graphics/SVG/1.1/DTD/svg11.dtd">
<svg xmlns="http://www.w3.org/2000/svg" version="1.1" width="512px" height="512px" style="shape-rendering:geometricPrecision; text-rendering:geometricPrecision; image-rendering:optimizeQuality; fill-rule:evenodd; clip-rule:evenodd" xmlns:xlink="http://www.w3.org/1999/xlink">
<g><path style="opacity:0.939" fill="#777777" d="M 234.5,93.5 C 270.502,93.3333 306.502,93.5 342.5,94C 344.723,94.6517 345.89,96.1517 346,98.5C 346.667,105.167 346.667,111.833 346,118.5C 344.95,121.877 342.617,123.877 339,124.5C 335.645,124.248 333.312,122.581 332,119.5C 331.501,115.514 331.334,111.514 331.5,107.5C 321.828,107.334 312.161,107.5 302.5,108C 294.667,114.5 286.833,121 279,127.5C 278.333,128.167 278.333,128.833 279,129.5C 285.469,134.968 291.636,140.801 297.5,147C 354.167,147.333 410.833,147.667 467.5,148C 473.209,151.545 473.875,155.879 469.5,161C 368.89,162.327 268.223,162.993 167.5,163C 123.167,206.667 78.8333,250.333 34.5,294C 171.167,294.333 307.833,294.667 444.5,295C 446.848,295.11 448.348,296.277 449,298.5C 449.893,301.916 449.393,305.083 447.5,308C 305.889,309.495 164.223,309.995 22.5,309.5C 22.5,314.167 22.5,318.833 22.5,323.5C 171.167,323.333 319.834,323.5 468.5,324C 473.808,328.237 473.808,332.571 468.5,337C 325.5,337.333 182.5,337.667 39.5,338C 49.5,344.667 59.5,351.333 69.5,358C 79.1667,358.333 88.8333,358.667 98.5,359C 102.102,359.85 103.769,362.183 103.5,366C 103.458,367.967 102.958,369.801 102,371.5C 95.5268,380.274 88.6934,388.774 81.5,397C 111.5,397.667 141.5,397.667 171.5,397C 180.667,385.167 189.833,373.333 199,361.5C 199.903,360.299 201.069,359.465 202.5,359C 283.167,358.333 363.833,358.333 444.5,359C 449.143,361.072 450.643,364.572 449,369.5C 445.598,378.539 442.098,387.539 438.5,396.5C 446.813,397.332 455.147,397.832 463.5,398C 467.5,402.333 467.5,406.667 463.5,411C 450.167,411.667 436.833,411.667 423.5,411C 420.606,408.091 419.773,404.591 421,400.5C 424.598,391.873 428.098,383.207 431.5,374.5C 427.878,373.341 424.211,373.175 420.5,374C 424.609,395.438 416.275,409.772 395.5,417C 370.491,419.487 356.157,408.32 352.5,383.5C 352.725,380.206 353.392,377.039 354.5,374C 352.741,373.202 351.074,373.369 349.5,374.5C 353.268,395.476 345.268,409.643 325.5,417C 302.258,420.747 287.758,411.247 282,388.5C 281.502,383.481 281.668,378.481 282.5,373.5C 281.022,373.238 279.689,373.571 278.5,374.5C 282.016,399.991 271.016,414.658 245.5,418.5C 219.027,415.019 207.694,400.019 211.5,373.5C 209.097,373.393 207.264,374.393 206,376.5C 197.153,388.337 187.986,399.837 178.5,411C 139.833,411.667 101.167,411.667 62.5,411C 59.2306,407.547 58.7306,403.714 61,399.5C 67.9534,391.091 74.7867,382.591 81.5,374C 76.1667,373.667 70.8333,373.333 65.5,373C 46.2334,360.785 27.4,347.952 9,334.5C 8.33333,322.5 8.33333,310.5 9,298.5C 59.4463,248.721 109.946,198.888 160.5,149C 199.082,147.678 237.749,147.012 276.5,147C 271.366,142.867 266.532,138.367 262,133.5C 259.613,130.224 259.279,126.891 261,123.5C 266.874,117.957 273.041,112.79 279.5,108C 268.172,107.5 256.838,107.333 245.5,107.5C 245.777,112.233 245.443,116.9 244.5,121.5C 240.614,125.378 236.78,125.378 233,121.5C 231.399,113.605 231.066,105.605 232,97.5C 232.662,96.0161 233.496,94.6828 234.5,93.5 Z M 227.5,373.5 C 239.171,373.333 250.838,373.5 262.5,374C 268.077,388.515 263.41,398.181 248.5,403C 231.487,402.983 223.987,394.483 226,377.5C 226.791,376.255 227.291,374.922 227.5,373.5 Z M 298.5,373.5 C 310.171,373.333 321.838,373.5 333.5,374C 339.035,387.94 334.701,397.606 320.5,403C 308.904,404.125 301.071,399.291 297,388.5C 296.182,383.349 296.682,378.349 298.5,373.5 Z M 369.5,373.5 C 381.518,373.168 393.518,373.501 405.5,374.5C 409.936,390.626 403.936,400.293 387.5,403.5C 370.745,399.994 364.745,389.994 369.5,373.5 Z"/></g>
<g><path style="opacity:0.898" fill="#777777" d="M 487.5,147.5 C 492.447,146.628 496.613,147.961 500,151.5C 501.495,158.505 498.662,162.172 491.5,162.5C 484.138,161.431 481.638,157.431 484,150.5C 485.145,149.364 486.312,148.364 487.5,147.5 Z"/></g>
<g><path style="opacity:0.958" fill="#777777" d="M 162.5,183.5 C 190.169,183.333 217.835,183.5 245.5,184C 249.212,186.513 250.378,190.013 249,194.5C 230.837,217.355 212.337,239.855 193.5,262C 177.833,262.167 162.167,262.333 146.5,262.5C 130.078,262.653 113.745,262.153 97.5,261C 95.6067,258.083 95.1067,254.916 96,251.5C 118.061,228.607 140.228,205.94 162.5,183.5 Z M 168.5,197.5 C 188.169,197.333 207.836,197.5 227.5,198C 213.594,214.483 199.928,231.149 186.5,248C 164.492,248.833 142.492,248.666 120.5,247.5C 136.886,231.116 152.886,214.449 168.5,197.5 Z"/></g>
<g><path style="opacity:0.951" fill="#777777" d="M 262.5,183.5 C 283.836,183.333 305.169,183.5 326.5,184C 330.212,186.513 331.378,190.013 330,194.5C 311.858,217.276 293.358,239.776 274.5,262C 258.499,262.47 242.499,262.97 226.5,263.5C 220.727,263.621 215.061,263.121 209.5,262C 205.535,257.437 205.702,252.937 210,248.5C 227.713,226.959 245.213,205.292 262.5,183.5 Z M 269.5,197.5 C 282.504,197.333 295.504,197.5 308.5,198C 294.455,214.376 280.789,231.043 267.5,248C 254.833,248.667 242.167,248.667 229.5,248C 243.203,231.409 256.536,214.576 269.5,197.5 Z"/></g>
<g><path style="opacity:0.961" fill="#777777" d="M 357.5,183.5 C 395.501,183.333 433.501,183.5 471.5,184C 474.683,185.018 476.016,187.185 475.5,190.5C 475.881,193.325 474.881,195.491 472.5,197C 433.833,197.667 395.167,197.667 356.5,197C 351.285,192.128 351.618,187.628 357.5,183.5 Z"/></g>
<g><path style="opacity:0.956" fill="#777777" d="M 393.5,207.5 C 412.503,207.333 431.503,207.5 450.5,208C 454.047,210.954 454.881,214.454 453,218.5C 452.097,219.701 450.931,220.535 449.5,221C 431.167,221.667 412.833,221.667 394.5,221C 391.317,219.982 389.984,217.815 390.5,214.5C 390.667,213.167 390.833,211.833 391,210.5C 392.045,209.627 392.878,208.627 393.5,207.5 Z"/></g>
<g><path style="opacity:0.926" fill="#767676" d="M 461.5,207.5 C 467.842,207.334 474.175,207.5 480.5,208C 483.394,210.909 484.227,214.409 483,218.5C 482.097,219.701 480.931,220.535 479.5,221C 473.5,221.667 467.5,221.667 461.5,221C 456.232,216.414 456.232,211.914 461.5,207.5 Z"/></g>
<g><path style="opacity:0.921" fill="#777777" d="M 483.5,323.5 C 488.844,323.334 494.177,323.501 499.5,324C 502.886,327.373 503.386,331.206 501,335.5C 500.25,336.126 499.416,336.626 498.5,337C 493.5,337.667 488.5,337.667 483.5,337C 478.248,332.506 478.248,328.006 483.5,323.5 Z"/></g>
<g><path style="opacity:0.938" fill="#777777" d="M 478.5,397.5 C 484.621,397.09 490.621,397.59 496.5,399C 500.528,408.732 497.194,412.899 486.5,411.5C 479.963,413.219 475.963,410.886 474.5,404.5C 475.071,401.687 476.404,399.354 478.5,397.5 Z"/></g>
</svg>
